# xmcd
#
# Track frame offsets:
# 150
# 20288
# 32891
#
# Disc length: 604 seconds
#
#
# Revision: 0
# Processed by: cddbd v1.5.1PL0 Copyright (c) Steve Scherf et al.
# Submitted via: FreeRIP 2.91 
#
DISCID=1a025a03
DTITLE=PIZZICATO V - Audrey Hepburn Complex
DYEAR=1985
DGENRE=Pop/Funk
TTITLE0=The Audrey Hepburn Complex (EXTENDED STANLEY DONEN MIX)
TTITLE1=The 59th Street Bridge Song - Feelin'Groovy (CLUB MIX - NIGHTOWL)
TTITLE2=Let's Go Away For Awhile (CLUB MIX - CAFE BIZARRE)
EXTD=
EXTT0=
EXTT1=
EXTT2=
PLAYORDER=
